<?xml version="1.0" encoding="UTF-8" standalone="no"?>
<!-- Created with Inkscape (http://www.inkscape.org/) -->

<svg
   width="157.78807mm"
   height="119.22471mm"
   viewBox="0 0 157.78807 119.22471"
   version="1.1"
   id="svg1"
   xml:space="preserve"
   xmlns="http://www.w3.org/2000/svg"
   xmlns:svg="http://www.w3.org/2000/svg"><defs
     id="defs1" /><g
     id="layer1"
     transform="translate(-25.539305,-62.431044)"><path
       style="fill:#000000"
       d="m 30.051548,181.36661 c -6.072275,-1.85558 -5.995641,-10.40979 0.107901,-12.04436 2.271651,-0.60836 5.026597,0.0831 6.481726,1.6268 0.343305,0.3642 0.374027,0.31041 -0.703605,1.23206 l -0.87446,0.74788 -0.445258,-0.39881 c -2.936139,-2.62983 -7.336123,0.40971 -6.026348,4.16304 0.87325,2.50241 4.116115,3.26863 6.100291,1.44137 l 0.419898,-0.38669 0.895858,0.74286 c 1.034932,0.85818 1.036469,0.86283 0.460865,1.3934 -1.657521,1.52785 -4.28324,2.13446 -6.416868,1.48245 z m 21.995471,-0.0308 c -0.93795,-0.25555 -2.121938,-0.77149 -2.517203,-1.0969 l -0.233245,-0.19203 0.520975,-1.04753 0.520973,-1.04754 0.55036,0.33141 c 2.35791,1.41985 5.45746,1.35129 5.73476,-0.12686 0.15857,-0.84521 -0.31469,-1.11282 -3.385,-1.91408 -2.79225,-0.7287 -3.730168,-1.66406 -3.598268,-3.58843 0.170222,-2.48349 2.557678,-3.86272 6.033758,-3.48571 1.22958,0.13336 3.2744,0.78157 3.2744,1.03798 0,0.0505 -0.71233,1.79904 -0.79993,1.96353 -0.0746,0.14005 -0.15126,0.12642 -0.66008,-0.1174 -2.01165,-0.96394 -4.44596,-0.88007 -4.94441,0.17035 -0.47389,0.99863 0.13631,1.40123 3.27639,2.16172 2.64843,0.64141 3.57181,1.54254 3.57181,3.48571 0,2.8747 -3.48298,4.5181 -7.34529,3.46578 z m 54.715571,0.11071 c -7.877031,-2.13013 -5.52425,-13.27275 2.58966,-12.26448 6.01706,0.74771 7.46848,8.99071 2.06054,11.70231 -1.34531,0.67455 -3.34202,0.91594 -4.6502,0.56217 z m 2.90427,-2.55379 c 1.96883,-0.72804 2.88293,-3.58916 1.75927,-5.50653 -1.46379,-2.49777 -4.96565,-2.41437 -6.22659,0.14829 -1.53661,3.12294 1.30267,6.52847 4.46732,5.35824 z m 38.19027,2.54978 c -7.8322,-2.11069 -5.54961,-13.16395 2.53236,-12.26276 6.83878,0.76257 7.42423,10.5114 0.73401,12.22248 -0.89477,0.22884 -2.49351,0.24855 -3.26637,0.0403 z m 2.94357,-2.55599 c 2.3236,-0.86937 2.9524,-4.48584 1.1008,-6.33107 -1.68337,-1.67758 -4.63088,-1.13717 -5.63375,1.03291 -1.46453,3.16906 1.36967,6.4817 4.53295,5.29816 z m 24.87771,2.63988 c -8.06223,-1.8034 -6.00614,-13.32141 2.20514,-12.353 6.77828,0.7994 7.42406,10.3861 0.82286,12.21538 -0.70282,0.19476 -2.42302,0.27294 -3.028,0.13762 z m 2.69856,-2.66053 c 2.00187,-0.90874 2.77852,-3.62648 1.59805,-5.59204 -1.45799,-2.42765 -5.00391,-2.24118 -6.20299,0.3262 -1.4648,3.13633 1.59306,6.63307 4.60494,5.26584 z M 38.690851,175.3378 v -6.05745 h 4.567907 4.567907 v 1.14198 1.14198 h -3.177674 -3.177675 v 1.24128 1.24128 h 2.780465 2.780466 v 1.14197 1.14198 h -2.780466 -2.780465 v 1.39023 1.39023 h 3.276977 3.276977 v 1.14198 1.14198 h -4.667209 -4.66721 z m 21.179068,5.93603 c 0.0621,-0.15433 1.47284,-3.39368 2.45549,-5.63813 0.39454,-0.90117 0.93191,-2.13003 1.19414,-2.73081 0.26224,-0.60078 0.72304,-1.6509 1.02399,-2.33361 l 0.54719,-1.24127 1.47999,-0.0273 1.47999,-0.0273 1.22212,2.75814 c 1.45041,3.27338 2.19718,4.90009 3.38845,7.38115 0.48658,1.01341 0.88469,1.87362 0.88469,1.91157 0,0.038 -0.68423,0.069 -1.52051,0.069 h -1.5205 l -0.42623,-1.00786 c -0.23442,-0.55432 -0.47087,-1.13592 -0.52543,-1.29243 l -0.0992,-0.28458 -2.82753,0.0263 -2.82754,0.0263 -0.53076,1.24128 -0.53076,1.24128 -1.45929,0.0275 c -1.15292,0.0218 -1.44859,9.2e-4 -1.4083,-0.0993 z m 8.51233,-4.7223 c 0,-0.0425 -0.20497,-0.56751 -0.45549,-1.1668 -0.25052,-0.59928 -0.64152,-1.56901 -0.8689,-2.15494 -0.51221,-1.31997 -0.4342,-1.36623 -1.29782,0.7697 -0.39699,0.98184 -0.79609,1.9582 -0.88689,2.16968 -0.0908,0.21148 -0.16509,0.40139 -0.16509,0.42203 0,0.0206 0.82669,0.0375 1.8371,0.0375 1.0104,0 1.83709,-0.0347 1.83709,-0.0772 z m 6.34707,4.80237 c -0.0228,-0.0227 -0.0295,-2.75126 -0.015,-6.06337 l 0.0263,-6.02203 3.39958,0.0341 c 3.87113,0.0388 4.14262,0.0844 5.35288,0.89858 2.40301,1.61665 2.30728,5.62295 -0.16571,6.93487 -0.58346,0.30952 -0.63604,0.16733 0.84082,2.2736 0.7083,1.01017 1.28922,1.87018 1.29093,1.91114 0.002,0.041 -0.68327,0.0745 -1.52217,0.0745 h -1.52527 l -1.13106,-1.68788 -1.13107,-1.68788 -1.31576,-2.6e-4 -1.31575,-2.6e-4 v 1.68814 1.68814 h -1.37368 c -0.75553,0 -1.39231,-0.0186 -1.41506,-0.0413 z m 6.38464,-5.87276 c 1.6878,-0.57508 1.83235,-2.8472 0.22788,-3.58176 -0.61059,-0.27953 -2.03804,-0.4112 -3.15788,-0.29127 l -0.6659,0.0713 v 1.97814 1.97814 h 1.57115 c 1.16141,0 1.68944,-0.0403 2.02475,-0.15456 z m 11.20015,-0.14232 v -6.05847 h 1.39023 1.39024 v 4.86582 4.86581 h 3.08152 3.081521 l -0.028,1.1668 -0.028,1.16681 -4.443771,0.0259 -4.44378,0.0258 z m 24.253821,0.0238 0.0256,-6.03261 1.19251,-0.0277 1.19251,-0.0277 0.79353,0.98765 c 3.28725,4.0914 4.97506,6.15514 5.03871,6.16099 0.041,0.004 0.0745,-1.60185 0.0745,-3.56803 v -3.57489 h 1.34058 1.34058 v 6.05745 6.05744 l -1.1668,-0.001 -1.1668,-10e-4 -2.92942,-3.6482 -2.92942,-3.64821 -0.026,3.64936 -0.026,3.64936 h -1.38978 -1.38977 z m 13.58036,-0.0248 v -6.05745 h 3.16179 c 6.14826,0 8.51847,1.7041 8.49428,6.1071 -0.024,4.37174 -2.34496,6.00779 -8.52282,6.00779 h -3.13325 z m 6.82548,3.33665 c 3.95854,-1.81598 2.2622,-6.90137 -2.33205,-6.99119 l -1.81226,-0.0354 v 3.69172 3.69171 l 1.76261,-0.0364 c 1.69059,-0.0349 1.78792,-0.048 2.3817,-0.32041 z m 20.68127,-3.33665 v -6.05745 l 1.21645,0.005 1.21646,0.005 0.44686,0.58081 c 0.24577,0.31944 1.56401,1.95056 2.92941,3.6247 l 2.48256,3.0439 0.026,-3.62963 0.026,-3.62964 h 1.38901 1.38901 v 6.05745 6.05744 l -1.21645,-0.002 -1.21646,-0.002 -0.89693,-1.11503 c -0.49332,-0.61327 -1.81156,-2.24522 -2.92942,-3.62656 l -2.03249,-2.51153 -0.026,3.62868 -0.026,3.62868 h -1.38901 -1.38901 z m 6.03215,-7.30612 c -0.15045,-0.0816 -0.52652,-0.3256 -0.83571,-0.54218 -0.83046,-0.58174 -1.25677,-0.50295 -1.53073,0.28294 -0.10985,0.31513 -0.11281,0.31629 -0.80955,0.31629 h -0.6993 l 0.0551,-0.5335 c 0.20893,-2.02433 1.73686,-2.59896 3.63748,-1.36798 0.94999,0.61528 1.42494,0.54157 1.70604,-0.2648 0.10878,-0.31204 0.11898,-0.31628 0.7598,-0.31628 h 0.64954 l -0.0549,0.60505 c -0.1367,1.50753 -1.66845,2.4765 -2.87778,1.82046 z M 90.576319,153.48542 C 69.353509,152.00055 51.794979,135.05489 49.373464,113.7207 45.905126,83.16376 70.967039,58.208071 100.17982,63.12967 c 0.98993,0.166777 1.83707,0.326224 1.88254,0.354326 0.18924,0.116957 0.0983,21.814353 -0.0911,21.735287 -13.989451,-5.839946 -29.155161,2.929508 -31.851891,18.418107 -3.22283,18.51022 14.26918,33.98938 30.960161,27.39752 0.53361,-0.21074 0.99164,-0.38316 1.01785,-0.38316 0.0262,0 0.0477,4.93434 0.0477,10.9652 v 10.96521 l -0.32274,0.10326 c -2.141841,0.68527 -7.469231,1.06424 -11.245981,0.8 z m 3.79988,-10.38073 0.0264,-2.69067 -1.92886,-0.0686 c -18.74126,-0.66686 -32.81065,-18.07168 -30.07137,-37.20042 2.22579,-15.543034 15.43939,-27.506746 30.38046,-27.506746 h 1.61663 V 72.90744 70.176626 l -0.81925,9.6e-4 c -26.85182,0.03149 -44.763363,28.63325 -33.52482,53.533584 5.45167,12.07882 17.16276,20.71618 29.73547,21.93099 0.59585,0.0576 1.23977,0.12019 1.43092,0.13916 0.19116,0.019 0.97317,0.0299 1.7378,0.0243 l 1.39023,-0.0102 z m 13.375641,10.36177 c -0.026,-0.0683 -0.0357,-8.14528 -0.0217,-17.9489 l 0.0255,-17.82477 h 3.87279 3.87279 l 0.0252,14.07611 0.0252,14.0761 h 18.22321 18.22321 l -0.0264,-2.75564 -0.0264,-2.75563 -15.41668,-0.0251 -15.41669,-0.0251 -0.002,-11.04707 c -0.002,-12.42723 0.0348,-11.77568 -0.75381,-13.37324 -0.81162,-1.6442 -2.27218,-2.90255 -4.06063,-3.49846 l -0.69512,-0.23162 -7.46098,-0.029 -7.46098,-0.029 -0.549,0.8251 c -5.207891,7.82698 -17.372161,3.687 -16.554501,-5.63416 0.7829,-8.924874 12.92973,-11.399148 16.923121,-3.44719 l 0.2636,0.5249 7.46902,-0.0302 c 8.26601,-0.0334 7.73405,0.007 9.17249,-0.69435 1.61207,-0.78583 2.99342,-2.55364 3.47428,-4.446294 0.19905,-0.78346 0.19089,0.037 0.15975,-16.062152 l -0.0248,-12.834826 h -2.73082 -2.73081 v 14.251037 14.251041 l -3.89762,-0.026 -3.89761,-0.026 -0.0275,-18.147501 -0.0275,-18.147501 h 10.57837 10.57837 l 0.0186,17.353082 c 0.0102,9.544195 0.009,24.458164 -0.003,33.142154 -0.0117,8.68399 0.009,16.64928 0.0467,17.70064 l 0.0679,1.91157 h 15.37617 15.37618 v 10.52605 10.52605 h -25.97068 c -20.68517,0 -25.98028,-0.0253 -26.01787,-0.12413 z M 93.537549,112.03303 c 4.2807,-1.11497 3.96788,-7.33468 -0.40765,-8.10542 -2.30185,-0.40546 -4.65752,1.51948 -4.77158,3.89911 -0.13549,2.8267 2.44131,4.91945 5.17923,4.20631 z"
       id="path1" /></g></svg>
