<?xml version="1.0" encoding="UTF-8" standalone="no"?>
<!-- Created with Inkscape (http://www.inkscape.org/) -->

<svg
   width="384.9928"
   height="56.3479"
   viewBox="0 0 384.9928 56.3479"
   version="1.1"
   id="svg1"
   xmlns="http://www.w3.org/2000/svg"
   xmlns:svg="http://www.w3.org/2000/svg">
  <defs
     id="defs1" />
  <g
     id="layer1"
     transform="translate(-595.31433,-289.26968)">
    <g
       id="text4"
       style="font-size:78.6107px;font-family:'Vladimir Script';-inkscape-font-specification:'Vladimir Script, Normal';stroke-width:2.9479"
       aria-label="&#10;Cesar Londoño&#10;">
      <path
         d="m 654.88648,296.86974 q -1.30506,5.83439 -8.09905,13.93344 -7.33137,8.7132 -12.51323,8.7132 -3.07073,0 -3.07073,-2.9172 0,-4.41417 8.09905,-11.74554 7.2546,-6.5253 12.55161,-8.67482 0.42223,-1.03637 0.42223,-1.99597 0,-2.91719 -3.30104,-2.91719 -7.10106,0 -19.57591,8.06066 -12.12938,7.83037 -21.18804,17.88701 -9.94149,11.01625 -9.94149,18.30923 0,5.87277 6.98592,5.87277 5.0667,0 11.05463,-2.72527 4.18387,-1.91921 8.63643,-5.10509 l 3.64649,-2.72527 q 0.61414,0 0.61414,1.11314 0,2.76365 -5.45054,6.33338 -3.60811,2.37981 -8.09905,4.26064 -4.45256,1.84243 -8.67482,1.84243 -4.8364,0 -8.17582,-2.91719 -3.49295,-3.03235 -3.49295,-7.83036 0,-10.13341 12.24453,-22.2628 9.86473,-9.78795 21.3032,-15.58396 12.89707,-6.5253 19.65267,-6.5253 6.21823,0 6.52531,5.87277 1.22829,-0.46061 1.80405,-0.46061 0.69091,0 0.69091,0.69092 0,0.65253 -2.6485,1.49698 z m -3.8768,1.38183 q -6.5253,3.33942 -12.20615,9.63442 -5.68085,6.25661 -5.68085,8.06066 0,0.84445 0.65253,0.84445 2.68689,0 9.32734,-7.75359 5.71924,-6.67884 7.90713,-10.78594 z"
         id="path1" />
      <path
         d="m 640.99142,336.75085 q -1.9192,0.46061 -7.21621,3.53134 -4.68287,2.68689 -7.10107,2.68689 -0.46061,0 -0.46061,-0.49899 0,-0.69092 0.99799,-0.84445 2.34143,-0.38384 6.60207,-2.87881 4.68286,-2.68689 7.63844,-3.37781 1.76567,-4.26063 7.29299,-8.9435 5.87277,-5.02832 10.01826,-5.02832 3.07073,0 3.07073,2.61012 0,3.41619 -6.48692,7.44652 -4.75963,2.99396 -9.74957,4.68287 -0.53738,1.22829 -0.53738,2.57173 0,1.99598 1.38183,2.61012 0.69091,0.26869 2.61012,0.34546 1.38183,0.0384 1.38183,0.65253 0,0.9596 -4.72125,0.9596 -4.98994,0 -4.98994,-4.3374 0,-0.99799 0.26869,-2.1879 z m 5.06671,-2.14951 q 3.53134,-1.72728 7.44652,-4.68286 5.22024,-3.8768 5.22024,-6.14146 0,-0.92122 -0.84445,-0.92122 -2.49497,0 -6.79399,4.60609 -3.83841,4.18387 -5.02832,7.13945 z m 15.92941,1.80406 q -7.9839,6.56368 -12.12938,6.56368 -0.46061,0 -0.46061,-0.46061 0,-0.69091 0.76768,-0.88283 1.42021,-0.34546 4.37579,-1.53537 2.76366,-1.49698 14.04859,-10.90109 10.70917,-8.90512 10.97786,-8.90512 0.88284,0 1.72729,0.76768 0.88283,0.76769 0.88283,1.65052 0,2.80204 -4.37579,9.86472 -3.80003,6.10308 -6.64045,9.13543 1.65052,0 1.65052,0.61414 0,0.76768 -1.61214,0.76768 -0.42222,0 -1.26667,-0.15353 -0.80607,-0.15354 -1.2283,-0.15354 -0.30707,0 -0.92122,0.11515 -0.61414,0.11516 -0.92121,0.11516 -4.87479,0 -4.87479,-6.60207 z m 6.10308,3.33941 q 2.68689,-2.22627 5.91115,-7.67682 2.99397,-5.06671 4.18387,-8.9435 l -13.74151,11.16978 q 1.42021,0.2303 2.37981,2.22628 z m -1.11314,1.18991 -1.07476,-3.03234 q -0.84445,-2.22628 -1.65052,-2.22628 -0.84445,0 -0.84445,1.30506 0,1.30506 0.76769,2.68689 0.88283,1.57375 2.07274,1.57375 0.46061,0 0.7293,-0.30708 z m 19.38399,-6.02631 q -10.24856,8.06067 -14.12536,8.06067 -0.46061,0 -0.46061,-0.49899 0,-0.69092 0.92122,-0.84445 3.60811,-0.57576 9.97987,-5.5657 l 4.95155,-3.8768 7.94552,-6.33338 q 5.45055,-3.76165 9.32734,-3.76165 2.87881,0 3.22427,2.87881 1.49698,-1.42021 2.07274,-1.42021 1.26668,0 1.26668,1.03637 0,1.34345 -5.91116,8.21421 -5.87277,6.87076 -5.87277,8.02228 0,0.80607 1.26668,0.84445 1.26667,0.0384 1.26667,0.65253 0,0.76768 -2.61012,0.76768 -2.57173,0 -2.57173,-2.26466 0,-1.80405 2.07274,-5.14347 l -4.75963,4.03033 q -3.49296,2.61012 -5.5657,2.61012 -3.30104,0 -3.30104,-3.33942 0,-1.84244 0.88284,-4.06872 z m 19.07691,-11.24655 q -2.26466,0 -9.36573,6.75561 -7.10106,6.75561 -7.10106,9.02027 0,1.03637 0.99799,1.03637 2.18789,0 9.36573,-6.60207 7.21621,-6.64045 7.21621,-8.9435 0,-1.26668 -1.11314,-1.26668 z m 17.84862,2.34144 q -0.19192,-1.26668 -0.19192,-1.53537 0,-1.03637 2.45659,-3.22427 2.49497,-2.22628 3.41619,-2.22628 0.88283,0 0.88283,0.80607 0,0.69091 -0.9596,2.30305 4.3374,0 4.3374,3.45457 0,2.72527 -5.60408,8.7132 -5.60408,5.94954 -5.60408,6.67884 0,0.69091 0.7293,0.76768 l 1.26667,-0.0384 q 0.53738,0 0.53738,0.61414 0,0.76768 -2.22628,0.76768 -2.84043,0 -2.84043,-2.53335 0,-2.49497 2.84043,-6.21823 1.76567,-2.34143 5.25863,-5.796 2.84042,-2.80204 2.84042,-3.07073 0,-0.57576 -0.65253,-0.57576 -0.57576,0 -2.18789,0.46061 -1.61214,0.42222 -1.91921,0.69091 -17.84862,16.9274 -24.06685,16.9274 -0.46061,0 -0.46061,-0.49899 0,-0.65253 1.03637,-0.84445 1.26668,-0.23031 3.33942,-1.18991 3.10912,-1.38183 9.28896,-6.56369 5.48893,-4.56771 8.48289,-7.86874 z m 48.90139,9.36572 q 13.24252,5.14348 18.15569,5.14348 0.53738,0 1.49698,-0.19192 0.99799,-0.23031 1.4586,-0.23031 0.34546,0 0.34546,0.34546 0,1.22829 -2.34143,2.18789 -1.95759,0.80607 -3.45458,0.80607 -5.0667,0 -18.50115,-5.25862 -8.13743,7.44652 -16.58194,7.44652 -3.41619,0 -5.75762,-1.2283 -2.95558,-1.57374 -2.95558,-4.72124 0,-3.83842 4.64448,-6.33339 3.91518,-2.07274 8.13744,-2.07274 5.14347,0 11.16978,2.45659 l 19.92136,-21.22643 q 8.29097,-8.90512 12.05262,-12.20615 8.98189,-7.86875 14.58597,-7.86875 4.79802,0 5.29701,4.1071 1.99598,-0.7293 2.53335,-0.7293 0.499,0 0.499,0.65253 0,0.53738 -1.18991,1.07476 l -1.6889,0.65253 q -0.42223,7.21622 -8.44451,16.6971 -8.02229,9.48088 -12.47485,9.48088 -3.18588,0 -3.18588,-2.9172 0,-4.18387 5.98793,-11.63039 6.02631,-7.4849 15.43042,-12.39807 0.0768,-0.69092 0.0768,-0.95961 0,-2.22628 -2.03436,-2.22628 -3.68488,0 -12.01424,7.90714 -3.10911,2.95557 -10.51725,11.01624 l -12.47484,13.5496 z m 44.83266,-35.96593 q -7.4849,3.72326 -13.47283,10.9011 -5.98792,7.17783 -5.98792,10.47886 0,1.18991 1.07476,1.18991 2.53335,0 8.86673,-6.98591 6.37177,-7.0243 9.51926,-15.58396 z m -52.08726,37.30938 q -5.5657,-2.07274 -11.09302,-2.07274 -8.25259,0 -8.25259,4.87478 0,4.1071 6.0647,4.1071 6.21823,0 13.28091,-6.90914 z m 45.7155,-3.99195 -7.90713,6.02631 q -6.06469,4.22225 -9.05866,4.22225 -0.46061,0 -0.46061,-0.46061 0,-0.7293 0.76769,-0.88283 2.34143,-0.42223 3.99195,-1.34345 2.87881,-1.57375 9.36572,-6.71722 l 10.13342,-8.32936 q 2.91719,-2.57173 3.56972,-2.57173 0.9596,0 2.11113,1.07475 2.22628,-1.6889 3.95356,-1.6889 2.61012,0 2.61012,2.80204 0,4.18387 -6.67884,11.40009 -6.79399,7.29298 -10.97786,7.29298 -3.91518,0 -3.91518,-4.1071 0,-2.14951 2.49497,-6.71722 z m 13.01222,0.0768 q 1.42021,-1.34345 2.84043,-3.6465 1.57375,-2.6485 1.57375,-4.22225 0,-1.4586 -1.26668,-1.4586 -1.88082,0 -3.80003,2.37982 -1.88082,2.34143 -1.88082,4.26064 0,2.14951 2.53335,2.68689 z m -3.76164,-4.79802 q -7.83037,6.83238 -7.83037,11.1314 0,1.84244 1.76567,1.84244 2.87881,0 8.98189,-6.94753 -3.22427,-0.76768 -3.22427,-4.14549 0,-0.88283 0.30708,-1.88082 z m 27.02243,3.33942 q 10.55564,-8.9435 14.81628,-8.9435 2.72527,0 2.72527,2.57173 0,2.26467 -6.17985,8.21421 -6.17984,5.91115 -6.17984,7.13945 0,1.22829 1.38183,1.34344 1.38183,0.0768 1.38183,0.65253 0,0.76768 -2.76366,0.76768 -3.18588,0 -3.18588,-2.84042 0,-2.37982 3.07073,-6.02631 1.57375,-1.88082 5.68085,-5.796 3.07073,-2.9172 3.07073,-3.53134 0,-0.499 -0.69092,-0.499 -2.18789,0 -9.51926,5.83439 -6.10308,4.8364 -9.05866,7.94552 -3.76164,3.95356 -4.56771,3.95356 -0.61414,0 -1.11314,-0.57576 -0.49899,-0.61415 -0.49899,-1.26668 0,-0.88283 5.29701,-7.13945 l 6.33338,-7.4849 -9.82634,7.9839 -7.2546,5.5657 q -5.52731,3.76164 -8.48289,3.76164 -0.499,0 -0.499,-0.46061 0,-0.69091 1.07476,-0.92122 1.4586,-0.26869 3.41619,-1.15152 2.80204,-1.22829 11.43847,-8.21421 7.75359,-6.29499 11.16978,-9.63441 0.57576,-0.57576 1.80406,-1.38183 0.61414,-0.23031 1.30506,-0.23031 0.65253,0 1.30506,0.46061 0.69091,0.42223 0.69091,1.03638 0,0.69091 -6.14146,8.86673 z m 22.9537,2.4182 -7.2546,5.5657 q -5.37378,3.64649 -8.32936,3.64649 -0.46061,0 -0.46061,-0.46061 0,-0.69091 0.76768,-0.88283 2.95558,-0.7293 5.37378,-2.1879 3.64649,-2.14951 10.21018,-7.90713 6.60207,-5.75762 10.17179,-7.86875 2.53336,-1.49698 4.56772,-1.49698 3.41618,0 3.56972,2.84043 5.75762,-7.2546 13.05061,-15.50719 11.20816,-12.74353 13.39606,-12.74353 1.22829,0 1.22829,1.38183 0,1.15152 -3.10911,4.41417 -5.79601,6.02631 -17.27286,19.49914 -14.08698,16.54356 -14.08698,18.69307 0,0.88284 1.26668,0.92122 1.26667,0.0384 1.26667,0.65253 0,0.76768 -1.84244,0.76768 -3.03234,0 -3.03234,-2.49496 0,-1.99598 2.53335,-6.21823 -7.56167,8.06066 -10.74756,8.06066 -2.95558,0 -2.95558,-3.14749 0,-1.76567 1.68891,-5.52732 z m 2.34143,6.67884 q 2.18789,0 8.67481,-6.5253 6.48692,-6.56369 6.48692,-8.75159 0,-1.11314 -1.03637,-1.11314 -2.68689,0 -8.78997,6.37177 -6.10307,6.37177 -6.10307,9.21219 0,0.80607 0.76768,0.80607 z m 28.40426,-7.71521 -7.90713,6.02631 q -6.0647,4.22225 -9.05866,4.22225 -0.46061,0 -0.46061,-0.46061 0,-0.7293 0.76768,-0.88283 2.34144,-0.42223 3.99195,-1.34345 2.87881,-1.57375 9.36573,-6.71722 l 10.13341,-8.32936 q 2.9172,-2.57173 3.56973,-2.57173 0.9596,0 2.11112,1.07475 2.22628,-1.6889 3.95357,-1.6889 2.61012,0 2.61012,2.80204 0,4.18387 -6.67884,11.40009 -6.79399,7.29298 -10.97786,7.29298 -3.91518,0 -3.91518,-4.1071 0,-2.14951 2.49497,-6.71722 z m 13.01222,0.0768 q 1.42021,-1.34345 2.84042,-3.6465 1.57375,-2.6485 1.57375,-4.22225 0,-1.4586 -1.26667,-1.4586 -1.88083,0 -3.80003,2.37982 -1.88083,2.34143 -1.88083,4.26064 0,2.14951 2.53336,2.68689 z m -3.76165,-4.79802 q -7.83036,6.83238 -7.83036,11.1314 0,1.84244 1.76567,1.84244 2.87881,0 8.98189,-6.94753 -3.22427,-0.76768 -3.22427,-4.14549 0,-0.88283 0.30707,-1.88082 z m 27.02245,3.33942 q 10.55564,-8.9435 14.81628,-8.9435 2.72527,0 2.72527,2.57173 0,2.26467 -6.17984,8.21421 -6.17985,5.91115 -6.17985,7.13945 0,1.22829 1.38183,1.34344 1.38183,0.0768 1.38183,0.65253 0,0.76768 -2.76366,0.76768 -3.18588,0 -3.18588,-2.84042 0,-2.37982 3.07073,-6.02631 1.57375,-1.88082 5.68085,-5.796 3.07073,-2.9172 3.07073,-3.53134 0,-0.499 -0.69091,-0.499 -2.1879,0 -9.51927,5.83439 -6.10308,4.8364 -9.05865,7.94552 -3.76165,3.95356 -4.56772,3.95356 -0.61414,0 -1.11314,-0.57576 -0.49899,-0.61415 -0.49899,-1.26668 0,-0.88283 5.29701,-7.13945 l 6.33338,-7.4849 -9.82634,7.9839 -7.2546,5.5657 q -5.52731,3.76164 -8.48289,3.76164 -0.49899,0 -0.49899,-0.46061 0,-0.69091 1.07475,-0.92122 1.4586,-0.26869 3.41619,-1.15152 2.80204,-1.22829 11.43847,-8.21421 7.7536,-6.29499 11.16978,-9.63441 0.57577,-0.57576 1.80406,-1.38183 0.61414,-0.23031 1.30506,-0.23031 0.65253,0 1.30506,0.46061 0.69091,0.42223 0.69091,1.03638 0,0.69091 -6.14146,8.86673 z m 8.63643,-16.65871 q -0.7293,0 -1.76567,0.99798 -0.99799,0.99799 -1.30506,0.99799 -0.65253,0 -0.65253,-0.65253 0,-0.9596 1.61214,-2.61012 1.65051,-1.6889 2.6485,-1.6889 1.18991,0 4.29902,1.26667 3.1475,1.26668 4.6061,1.26668 1.03637,0 2.03436,-0.9596 0.99799,-0.99799 1.22829,-0.99799 0.34546,0 0.34546,0.46061 0,1.15152 -1.57375,2.64851 -1.53537,1.49698 -2.76366,1.49698 -1.57375,0 -4.6061,-1.11314 -2.99396,-1.11314 -4.1071,-1.11314 z m 15.6991,18.04054 -7.90713,6.02631 q -6.0647,4.22225 -9.05866,4.22225 -0.46061,0 -0.46061,-0.46061 0,-0.7293 0.76768,-0.88283 2.34144,-0.42223 3.99195,-1.34345 2.87881,-1.57375 9.36573,-6.71722 l 10.13341,-8.32936 q 2.9172,-2.57173 3.56973,-2.57173 0.9596,0 2.11112,1.07475 2.22628,-1.6889 3.95357,-1.6889 2.61012,0 2.61012,2.80204 0,4.18387 -6.67884,11.40009 -6.79399,7.29298 -10.97786,7.29298 -3.91518,0 -3.91518,-4.1071 0,-2.14951 2.49497,-6.71722 z m 13.01222,0.0768 q 1.42021,-1.34345 2.84042,-3.6465 1.57375,-2.6485 1.57375,-4.22225 0,-1.4586 -1.26667,-1.4586 -1.88083,0 -3.80003,2.37982 -1.88082,2.34143 -1.88082,4.26064 0,2.14951 2.53335,2.68689 z m -3.76165,-4.79802 q -7.83036,6.83238 -7.83036,11.1314 0,1.84244 1.76567,1.84244 2.87881,0 8.98189,-6.94753 -3.22427,-0.76768 -3.22427,-4.14549 0,-0.88283 0.30707,-1.88082 z"
         id="path2" />
    </g>
  </g>
</svg>
